<svg xmlns="http://www.w3.org/2000/svg" version="1.1" xmlns:xlink="http://www.w3.org/1999/xlink" xmlns:svgjs="http://svgjs.dev/svgjs" width="1000" height="373" viewBox="0 0 1000 373"><g transform="matrix(1,0,0,1,-0.6060454203016548,0.5253343467775551)"><svg viewBox="0 0 396 148" data-background-color="#1f2d5a" preserveAspectRatio="xMidYMid meet" height="373" width="1000" xmlns="http://www.w3.org/2000/svg" xmlns:xlink="http://www.w3.org/1999/xlink"><g id="tight-bounds" transform="matrix(1,0,0,1,0.23999398643945824,-0.20844365502165374)"><svg viewBox="0 0 395.52 148.4168873100433" height="148.4168873100433" width="395.52"><g><svg viewBox="0 0 395.52 148.4168873100433" height="148.4168873100433" width="395.52"><g transform="matrix(1,0,0,1,0,91.72759054782429)"><svg viewBox="0 0 395.52 56.68929676221901" height="56.68929676221901" width="395.52"><g id="textblocktransform"><svg viewBox="0 0 395.52 56.68929676221901" height="56.68929676221901" width="395.52" id="textblock"><g><svg viewBox="0 0 395.52 56.68929676221901" height="56.68929676221901" width="395.52"><g transform="matrix(1,0,0,1,0,0)"><svg width="395.52" viewBox="2.299999952316284 -34.349998474121094 242.42999267578125 34.75" height="56.68929676221901" data-palette-color="#fbfbfb"><path d="M29.1-29.63Q33.25-24.9 33.25-17 33.25-9.1 29.08-4.35 24.9 0.4 17.8 0.4L17.8 0.4Q10.75 0.4 6.53-4.35 2.3-9.1 2.3-17L2.3-17Q2.3-24.85 6.5-29.6 10.7-34.35 17.75-34.35L17.75-34.35Q24.95-34.35 29.1-29.63ZM10.38-26.18Q7.7-22.8 7.7-17 7.7-11.2 10.45-7.8 13.2-4.4 17.8-4.4L17.8-4.4Q22.55-4.4 25.2-7.75 27.85-11.1 27.85-17L27.85-17Q27.85-22.85 25.18-26.2 22.5-29.55 17.75-29.55L17.75-29.55Q13.05-29.55 10.38-26.18ZM59.45-33.7L59.45-29.4 50.6-29.4 50.6 0 45.45 0 45.45-29.4 36.65-29.4 36.65-33.7 59.45-33.7ZM89.65-33.7L89.65 0 84.5 0 84.5-14.75 69.35-14.75 69.35 0 64.2 0 64.2-33.7 69.35-33.7 69.35-19.2 84.5-19.2 84.5-33.7 89.65-33.7ZM116.44-4.3L116.44 0 96.99 0 96.99-33.7 116.19-33.7 116.19-29.4 102.14-29.4 102.14-19 114.59-19 114.59-14.7 102.14-14.7 102.14-4.3 116.44-4.3ZM141.64-4.55L141.64 0 122.69 0 122.69-33.7 127.84-33.7 127.84-4.55 141.64-4.55ZM165.64-4.55L165.64 0 146.69 0 146.69-33.7 151.84-33.7 151.84-4.55 165.64-4.55ZM196.14-29.63Q200.29-24.9 200.29-17 200.29-9.1 196.11-4.35 191.94 0.4 184.84 0.4L184.84 0.4Q177.79 0.4 173.56-4.35 169.34-9.1 169.34-17L169.34-17Q169.34-24.85 173.54-29.6 177.74-34.35 184.79-34.35L184.79-34.35Q191.99-34.35 196.14-29.63ZM177.41-26.18Q174.74-22.8 174.74-17 174.74-11.2 177.49-7.8 180.24-4.4 184.84-4.4L184.84-4.4Q189.59-4.4 192.24-7.75 194.89-11.1 194.89-17L194.89-17Q194.89-22.85 192.21-26.2 189.54-29.55 184.79-29.55L184.79-29.55Q180.09-29.55 177.41-26.18ZM214.23-14.25L214.23-14.25 213.68-12.55 224.48-12.55 223.93-14.25Q222.03-20.15 220.83-24.03 219.63-27.9 219.38-28.85L219.38-28.85 219.13-29.8Q218.58-27.45 214.23-14.25ZM212.28-8.25L209.58 0 204.13 0 215.78-33.7 222.53-33.7 234.03 0 228.53 0 225.88-8.25 212.28-8.25ZM244.73-33.7L244.73 0 239.63 0 239.63-33.7 244.73-33.7Z" opacity="1" transform="matrix(1,0,0,1,0,0)" fill="#fbfbfb" class="undefined-text-0" data-fill-palette-color="primary" id="text-0"></path></svg></g></svg></g></svg></g></svg></g><g transform="matrix(1,0,0,1,158.58769593730665,0)"><svg viewBox="0 0 78.34460812538667 78.34460812538667" height="78.34460812538667" width="78.34460812538667"><g><svg xmlns="http://www.w3.org/2000/svg" xmlns:xlink="http://www.w3.org/1999/xlink" version="1.1" x="0" y="0" viewBox="16.621999740600586 15.621999740600586 66.75599670410156 66.75599670410156" enable-background="new 0 0 100 100" xml:space="preserve" height="78.34460812538667" width="78.34460812538667" class="icon-icon-0" data-fill-palette-color="accent" id="icon-0"><path d="M46.373 32.484c0-6.627-5.392-12.02-12.02-12.02-6.627 0-12.02 5.392-12.02 12.02 0 6.628 5.392 12.02 12.02 12.02C40.981 44.504 46.373 39.112 46.373 32.484z" fill="#2f76db" data-fill-palette-color="accent"></path><path d="M66.189 44.504c6.628 0 12.02-5.392 12.02-12.02 0-6.627-5.392-12.02-12.02-12.02-6.627 0-12.02 5.392-12.02 12.02C54.169 39.112 59.562 44.504 66.189 44.504zM66.189 22.465c5.525 0 10.02 4.495 10.02 10.02s-4.495 10.02-10.02 10.02-10.02-4.495-10.02-10.02S60.664 22.465 66.189 22.465z" fill="#2f76db" data-fill-palette-color="accent"></path><path d="M66.189 77.209c6.628 0 12.02-5.392 12.02-12.02 0-6.627-5.392-12.02-12.02-12.02-6.627 0-12.02 5.392-12.02 12.02C54.169 71.817 59.562 77.209 66.189 77.209z" fill="#2f76db" data-fill-palette-color="accent"></path><path d="M33.758 53.169c-6.627 0-12.02 5.392-12.02 12.02 0 6.628 5.392 12.02 12.02 12.02 6.628 0 12.02-5.392 12.02-12.02C45.778 58.562 40.386 53.169 33.758 53.169zM33.758 75.209c-5.525 0-10.02-4.495-10.02-10.02s4.495-10.02 10.02-10.02 10.02 4.495 10.02 10.02S39.283 75.209 33.758 75.209z" fill="#2f76db" data-fill-palette-color="accent"></path><path d="M82.378 15.622H50 32.667c-0.552 0-1 0.448-1 1s0.448 1 1 1H49V48H18.622V28.221c0-0.552-0.448-1-1-1s-1 0.448-1 1V49v32.378c0 0.552 0.448 1 1 1H50h32.378c0.552 0 1-0.448 1-1V49 16.622C83.378 16.07 82.93 15.622 82.378 15.622zM81.378 48H51V17.622h30.378V48zM18.622 50H49v30.378H18.622V50zM81.378 80.378H51V50h30.378V80.378z" fill="#2f76db" data-fill-palette-color="accent"></path></svg></g></svg></g><g></g></svg></g><defs></defs></svg><rect width="395.52" height="148.4168873100433" fill="none" stroke="none" visibility="hidden"></rect></g></svg></g></svg>